# Blender 4.2.3 LTS
# www.blender.org
o Plane
v 2.500000 -0.010000 -1.000000
v 2.500000 -0.010000 -0.500000
v 4.000000 -0.010000 0.000000
v 2.500000 -0.010000 1.000000
v 2.500000 -0.010000 0.500000
v 0.000000 -0.010000 -0.500000
v 0.000000 -0.010000 0.500000
v 2.500000 0.010000 -1.000000
v 2.500000 0.010000 -0.500000
v 4.000000 0.010000 0.000000
v 2.500000 0.010000 1.000000
v 2.500000 0.010000 0.500000
v 0.000000 0.010000 -0.500000
v 0.000000 0.010000 0.500000
vn -0.0000 -1.0000 -0.0000
vn -0.0000 1.0000 -0.0000
vn -0.0000 -0.0000 1.0000
vn -1.0000 -0.0000 -0.0000
vn 0.5547 -0.0000 -0.8321
vn -0.0000 -0.0000 -1.0000
vn 0.5547 -0.0000 0.8321
vt 0.412354 0.441274
vt 0.494051 0.000106
vt 0.330656 0.032786
vt 0.543070 0.670027
vt 0.575749 0.408595
vt 0.330656 0.457613
vt 0.657446 0.392255
vt 0.248745 0.408595
vt 0.003652 0.032786
vt 0.085350 0.441274
vt 0.216066 0.670027
vt 0.330443 0.392255
vt 0.003652 0.457613
vt 0.000107 0.000107
vt 0.003439 0.416684
vt 0.003439 0.000107
vt 0.657659 0.300505
vt 0.660992 0.383821
vt 0.660992 0.300505
vt 0.664538 0.300505
vt 0.661205 0.000106
vt 0.661205 0.300505
vt 0.000107 0.583316
vt 0.003439 0.999893
vt 0.003439 0.583316
vt 0.000107 0.416684
vt 0.657659 0.000106
vt 0.660992 0.000106
vt 0.664538 0.383820
vt 0.661205 0.383820
vt 0.167048 0.000107
vt 0.657659 0.383821
vt 0.664538 0.000106
vt 0.000107 0.999893
s 0
f 2/1/1 7/2/1 6/3/1
f 3/4/1 5/5/1 2/1/1
f 1/6/1 3/4/1 2/1/1
f 3/4/1 4/7/1 5/5/1
f 9/8/2 14/9/2 12/10/2
f 10/11/2 9/8/2 12/10/2
f 8/12/2 9/8/2 10/11/2
f 10/11/2 12/10/2 11/13/2
f 12/14/3 7/15/3 5/16/3
f 11/17/4 5/18/4 4/19/4
f 8/20/5 3/21/5 1/22/5
f 13/23/6 2/24/6 6/25/6
f 14/26/4 6/25/4 7/15/4
f 10/27/7 4/19/7 3/28/7
f 9/29/4 1/22/4 2/30/4
f 2/1/1 5/5/1 7/2/1
f 9/8/2 13/31/2 14/9/2
f 12/14/3 14/26/3 7/15/3
f 11/17/4 12/32/4 5/18/4
f 8/20/5 10/33/5 3/21/5
f 13/23/6 9/34/6 2/24/6
f 14/26/4 13/23/4 6/25/4
f 10/27/7 11/17/7 4/19/7
f 9/29/4 8/20/4 1/22/4
